<?xml version="1.0" encoding="utf-8"?><!-- Uploaded to: SVG Repo, www.svgrepo.com, Generator: SVG Repo Mixer Tools -->
<svg width="800px" height="800px" viewBox="0 0 24 24" fill="none" xmlns="http://www.w3.org/2000/svg">
<path fill-rule="evenodd" clip-rule="evenodd" d="M3.5 12C3.5 7.30558 7.30558 3.5 12 3.5C16.6944 3.5 20.5 7.30558 20.5 12C20.5 16.6944 16.6944 20.5 12 20.5C7.30558 20.5 3.5 16.6944 3.5 12ZM12 4.5C9.26899 4.5 6.87891 5.95969 5.56738 8.14145L8.31816 11.0031C9.14199 11.8601 10.5878 11.4639 10.8598 10.3067L10.9651 9.85862C11.4363 7.85341 12.6197 6.08754 14.2952 4.88932L14.3256 4.86754C13.5934 4.62897 12.8118 4.5 12 4.5ZM4.5 12C4.5 10.9662 4.70916 9.98127 5.08747 9.08519L7.59723 11.6961C8.97027 13.1244 11.38 12.4642 11.8333 10.5355L11.9386 10.0874C12.3544 8.31809 13.3985 6.75998 14.8769 5.70272L15.4546 5.34125C17.7207 6.51931 19.3096 8.8202 19.484 11.5067C19.4344 11.5023 19.3841 11.5 19.3333 11.5C18.2671 11.5 17.5 12.4524 17.5 13.5C17.5 14.3246 17.9753 15.0902 18.6976 15.3788C17.4618 17.8237 14.9267 19.5 12 19.5C7.85786 19.5 4.5 16.1421 4.5 12ZM19.0893 14.454C19.3017 13.8403 19.4367 13.1904 19.4825 12.5161C19.4339 12.5054 19.384 12.5 19.3333 12.5C18.9268 12.5 18.5 12.8907 18.5 13.5C18.5 13.9868 18.7725 14.3341 19.0893 14.454Z" fill="#47495F"/>
</svg>